<mxfile modified="2023-08-11T10:19:15.584Z" host="app.diagrams.net" agent="Mozilla/5.0 (Windows NT 10.0; Win64; x64) AppleWebKit/537.36 (KHTML, like Gecko) Chrome/115.0.0.0 Safari/537.36" etag="nBpCMEpvdj1St3P7XQ0B" version="21.6.8" type="github">
  <diagram id="f106602c-feb2-e66a-4537-3a34d633f6aa" name="Page-1">
    <mxGraphModel dx="1050" dy="579" grid="1" gridSize="10" guides="1" tooltips="1" connect="1" arrows="1" fold="1" page="1" pageScale="1" pageWidth="1169" pageHeight="827" background="none" math="0" shadow="0">
      <root>
        <mxCell id="0" />
        <mxCell id="1" parent="0" />
        <mxCell id="0VkP1Kj4bZg9W5dtAvib-1011" style="edgeStyle=orthogonalEdgeStyle;rounded=0;orthogonalLoop=1;jettySize=auto;html=1;exitX=1;exitY=0.75;exitDx=0;exitDy=0;entryX=0;entryY=0.5;entryDx=0;entryDy=0;" parent="1" source="997" target="0VkP1Kj4bZg9W5dtAvib-1010" edge="1">
          <mxGeometry relative="1" as="geometry" />
        </mxCell>
        <mxCell id="997" value="Multiple&lt;br&gt;Clients&lt;br&gt;API Requests&lt;br&gt;" style="rounded=1;absoluteArcSize=1;arcSize=2;html=1;strokeColor=none;gradientColor=none;shadow=0;dashed=0;fontSize=12;fontColor=#9E9E9E;align=left;verticalAlign=top;spacing=10;spacingTop=-4;fillColor=#F1F8E9;" parent="1" vertex="1">
          <mxGeometry x="310" y="140" width="90" height="230" as="geometry" />
        </mxCell>
        <mxCell id="818" value="Architecture: Backup and Archive &amp;gt; API Hosting" style="fillColor=#4DA1F5;strokeColor=none;shadow=1;gradientColor=none;fontSize=14;align=left;spacingLeft=50;fontColor=#ffffff;html=1;" parent="1" vertex="1">
          <mxGeometry x="260" y="40" width="650" height="40" as="geometry" />
        </mxCell>
        <mxCell id="985" value="" style="strokeColor=#dddddd;fillColor=#ffffff;shadow=1;strokeWidth=1;rounded=1;absoluteArcSize=1;arcSize=2;labelPosition=center;verticalLabelPosition=middle;align=center;verticalAlign=bottom;spacingLeft=0;fontColor=#999999;fontSize=12;whiteSpace=wrap;spacingBottom=2;html=1;" parent="1" vertex="1">
          <mxGeometry x="320" y="200" width="70" height="70" as="geometry" />
        </mxCell>
        <mxCell id="986" value="" style="dashed=0;connectable=0;html=1;fillColor=#757575;strokeColor=none;shape=mxgraph.gcp2.mobile_devices;part=1;" parent="985" vertex="1">
          <mxGeometry x="0.5" width="50" height="36.5" relative="1" as="geometry">
            <mxPoint x="-25" y="16.75" as="offset" />
          </mxGeometry>
        </mxCell>
        <mxCell id="987" value="" style="strokeColor=#dddddd;fillColor=#ffffff;shadow=1;strokeWidth=1;rounded=1;absoluteArcSize=1;arcSize=2;labelPosition=center;verticalLabelPosition=middle;align=center;verticalAlign=bottom;spacingLeft=0;fontColor=#999999;fontSize=12;whiteSpace=wrap;spacingBottom=2;html=1;" parent="1" vertex="1">
          <mxGeometry x="320" y="289.5" width="70" height="70" as="geometry" />
        </mxCell>
        <mxCell id="988" value="" style="dashed=0;connectable=0;html=1;fillColor=#757575;strokeColor=none;shape=mxgraph.gcp2.laptop;part=1;" parent="987" vertex="1">
          <mxGeometry x="0.5" width="50" height="33" relative="1" as="geometry">
            <mxPoint x="-25" y="18.5" as="offset" />
          </mxGeometry>
        </mxCell>
        <mxCell id="0VkP1Kj4bZg9W5dtAvib-1003" value="" style="endArrow=classic;html=1;rounded=0;exitX=1;exitY=0.5;exitDx=0;exitDy=0;" parent="1" source="997" target="0VkP1Kj4bZg9W5dtAvib-1006" edge="1">
          <mxGeometry relative="1" as="geometry">
            <mxPoint x="460" y="300" as="sourcePoint" />
            <mxPoint x="440" y="255" as="targetPoint" />
          </mxGeometry>
        </mxCell>
        <mxCell id="0VkP1Kj4bZg9W5dtAvib-1004" value="Label" style="edgeLabel;resizable=0;html=1;align=center;verticalAlign=middle;" parent="0VkP1Kj4bZg9W5dtAvib-1003" connectable="0" vertex="1">
          <mxGeometry relative="1" as="geometry" />
        </mxCell>
        <mxCell id="0VkP1Kj4bZg9W5dtAvib-1005" value="Source" style="edgeLabel;resizable=0;html=1;align=left;verticalAlign=bottom;" parent="0VkP1Kj4bZg9W5dtAvib-1003" connectable="0" vertex="1">
          <mxGeometry x="-1" relative="1" as="geometry" />
        </mxCell>
        <mxCell id="0VkP1Kj4bZg9W5dtAvib-1009" value="Request" style="edgeLabel;html=1;align=center;verticalAlign=middle;resizable=0;points=[];" parent="0VkP1Kj4bZg9W5dtAvib-1003" vertex="1" connectable="0">
          <mxGeometry x="0.0233" y="-1" relative="1" as="geometry">
            <mxPoint as="offset" />
          </mxGeometry>
        </mxCell>
        <mxCell id="0VkP1Kj4bZg9W5dtAvib-1006" value="Main Backend&amp;nbsp;&lt;br&gt;&lt;ul&gt;&lt;li&gt;Auth&lt;/li&gt;&lt;li&gt;Post&lt;/li&gt;&lt;/ul&gt;" style="rounded=1;whiteSpace=wrap;html=1;fillColor=default;glass=0;" parent="1" vertex="1">
          <mxGeometry x="655" y="190" width="170" height="130" as="geometry" />
        </mxCell>
        <mxCell id="0VkP1Kj4bZg9W5dtAvib-1007" value="" style="rounded=1;whiteSpace=wrap;html=1;fillColor=none;" parent="1" vertex="1">
          <mxGeometry x="610" y="130" width="500" height="470" as="geometry" />
        </mxCell>
        <mxCell id="0VkP1Kj4bZg9W5dtAvib-1010" value="Like Microservice" style="rounded=1;whiteSpace=wrap;html=1;fillColor=default;" parent="1" vertex="1">
          <mxGeometry x="640" y="370" width="200" height="150" as="geometry" />
        </mxCell>
        <mxCell id="0VkP1Kj4bZg9W5dtAvib-1019" value="" style="endArrow=classic;startArrow=classic;html=1;rounded=0;" parent="1" edge="1">
          <mxGeometry width="50" height="50" relative="1" as="geometry">
            <mxPoint x="740" y="370" as="sourcePoint" />
            <mxPoint x="739.5" y="320" as="targetPoint" />
            <Array as="points" />
          </mxGeometry>
        </mxCell>
        <mxCell id="0VkP1Kj4bZg9W5dtAvib-1022" value="Likes Database" style="shape=datastore;whiteSpace=wrap;html=1;" parent="1" vertex="1">
          <mxGeometry x="960" y="390" width="90" height="110" as="geometry" />
        </mxCell>
        <mxCell id="0VkP1Kj4bZg9W5dtAvib-1023" value="User&lt;br&gt;Posts" style="shape=datastore;whiteSpace=wrap;html=1;" parent="1" vertex="1">
          <mxGeometry x="960" y="200" width="90" height="100" as="geometry" />
        </mxCell>
        <mxCell id="0VkP1Kj4bZg9W5dtAvib-1024" value="" style="shape=flexArrow;endArrow=classic;startArrow=classic;html=1;rounded=0;" parent="1" edge="1">
          <mxGeometry width="100" height="100" relative="1" as="geometry">
            <mxPoint x="825" y="254.5" as="sourcePoint" />
            <mxPoint x="960" y="254.5" as="targetPoint" />
            <Array as="points" />
          </mxGeometry>
        </mxCell>
        <mxCell id="0VkP1Kj4bZg9W5dtAvib-1025" value="" style="shape=flexArrow;endArrow=classic;startArrow=classic;html=1;rounded=0;entryX=0;entryY=0.5;entryDx=0;entryDy=0;" parent="1" target="0VkP1Kj4bZg9W5dtAvib-1022" edge="1">
          <mxGeometry width="100" height="100" relative="1" as="geometry">
            <mxPoint x="840" y="444.5" as="sourcePoint" />
            <mxPoint x="950" y="445" as="targetPoint" />
            <Array as="points" />
          </mxGeometry>
        </mxCell>
        <mxCell id="0VkP1Kj4bZg9W5dtAvib-1026" value="Messages&amp;nbsp; sharing on like saved&lt;br&gt;" style="text;html=1;align=center;verticalAlign=middle;resizable=0;points=[];autosize=1;strokeColor=none;fillColor=none;" parent="1" vertex="1">
          <mxGeometry x="750" y="330" width="200" height="30" as="geometry" />
        </mxCell>
        <mxCell id="0VkP1Kj4bZg9W5dtAvib-1027" value="Like Request" style="text;html=1;align=center;verticalAlign=middle;resizable=0;points=[];autosize=1;strokeColor=none;fillColor=none;" parent="1" vertex="1">
          <mxGeometry x="430" y="318" width="90" height="30" as="geometry" />
        </mxCell>
        <mxCell id="0VkP1Kj4bZg9W5dtAvib-1031" value="Backend&amp;nbsp;" style="text;html=1;align=center;verticalAlign=middle;resizable=0;points=[];autosize=1;strokeColor=none;fillColor=none;" parent="1" vertex="1">
          <mxGeometry x="835" y="598" width="70" height="30" as="geometry" />
        </mxCell>
      </root>
    </mxGraphModel>
  </diagram>
</mxfile>
